<?xml version="1.0" encoding="utf-8"?>
<!-- Generator: Adobe Illustrator 16.0.0, SVG Export Plug-In . SVG Version: 6.00 Build 0)  -->
<!DOCTYPE svg PUBLIC "-//W3C//DTD SVG 1.0//EN" "http://www.w3.org/TR/2001/REC-SVG-20010904/DTD/svg10.dtd">
<svg version="1.0" id="Layer_1" xmlns="http://www.w3.org/2000/svg" xmlns:xlink="http://www.w3.org/1999/xlink" x="0px" y="0px"
	 width="792px" height="168px" viewBox="0 0 792 168" enable-background="new 0 0 792 168" xml:space="preserve">
<g>
	<path fill="#213857" d="M172.804,73.263c6.026,5.807,8.984,12.928,8.984,21.473c0,8.655-2.958,15.887-8.984,21.803
		c-5.916,5.807-13.146,8.765-21.802,8.765c-8.545,0-15.886-2.958-21.912-8.765s-8.984-13.038-8.984-21.583
		c0-8.546,3.068-15.776,9.093-21.583c6.026-5.807,13.366-8.765,21.912-8.765C159.547,64.608,166.778,67.457,172.804,73.263z
		 M133.473,94.736c0,5.149,1.644,9.532,4.93,13.257c3.287,3.615,7.56,5.478,12.708,5.478c5.149,0,9.422-1.753,12.599-5.368
		s4.821-7.997,4.821-13.146s-1.644-9.532-4.93-13.147c-3.177-3.615-7.45-5.368-12.599-5.368s-9.422,1.753-12.709,5.368
		C135.116,85.314,133.473,89.588,133.473,94.736z"/>
	<path fill="#213857" d="M195.368,35.137h13.038v89.18h-13.038V35.137z"/>
	<path fill="#213857" d="M225.823,35.137h13.038v89.18h-13.038V35.137z"/>
	<path fill="#213857" d="M265.7,98.9c0.11,4.382,1.863,7.997,5.259,10.955c3.396,2.849,7.34,4.273,11.833,4.273
		c7.34,0,12.599-3.068,15.776-9.094l9.422,6.245c-4.93,9.093-14.462,14.133-24.979,14.133c-8.655,0-15.995-2.849-21.911-8.655
		c-5.807-5.807-8.765-13.146-8.765-21.802c0-8.437,2.848-15.558,8.436-21.474c5.588-5.916,12.6-8.874,21.035-8.874
		c8.875,0,15.886,2.739,20.926,8.326s7.56,12.818,7.56,21.912c0,1.753-0.109,3.067-0.219,4.054H265.7z M266.357,89.04h30.676
		c-0.438-8.217-6.902-13.257-15.229-13.257C273.807,75.783,267.563,81.042,266.357,89.04z"/>
	<path fill="#213857" d="M327.595,115.882c-5.368-5.917-7.998-12.929-7.998-21.035c0-7.779,2.629-14.681,7.888-20.816
		c5.368-6.135,12.38-9.203,21.035-9.203c3.177,0,6.574,0.876,10.298,2.52c3.725,1.644,6.683,4.054,8.765,7.34v-8.874h12.709v57.737
		c0,9.202-2.849,16.543-8.436,21.911s-12.928,8.107-22.131,8.107c-14.242,0-24.103-5.916-29.471-17.748l10.846-6.245
		c4.054,8.217,10.189,12.38,18.406,12.38c10.188,0,17.748-6.135,17.748-17.857v-9.203c-2.082,3.396-5.04,5.807-8.874,7.45
		c-3.834,1.643-7.231,2.41-10.298,2.41C339.865,124.756,332.963,121.798,327.595,115.882z M362.653,81.699
		c-3.177-3.506-7.45-5.259-12.599-5.259c-5.149,0-9.422,1.753-12.599,5.259c-3.177,3.396-4.82,7.778-4.82,12.928
		s1.643,9.531,4.82,13.147c3.287,3.506,7.45,5.259,12.599,5.259c5.149,0,9.313-1.753,12.49-5.259
		c3.287-3.616,4.93-7.998,4.93-13.147S365.831,85.205,362.653,81.699z"/>
	<path fill="#213857" d="M407.237,98.9c0.109,4.382,1.862,7.997,5.259,10.955c3.396,2.849,7.341,4.273,11.832,4.273
		c7.341,0,12.6-3.068,15.776-9.094l9.423,6.245c-4.931,9.093-14.462,14.133-24.979,14.133c-8.655,0-15.996-2.849-21.912-8.655
		c-5.806-5.807-8.765-13.146-8.765-21.802c0-8.437,2.849-15.558,8.437-21.474c5.587-5.916,12.599-8.874,21.035-8.874
		c8.874,0,15.886,2.739,20.925,8.326c5.04,5.587,7.56,12.818,7.56,21.912c0,1.753-0.109,3.067-0.219,4.054H407.237z M407.895,89.04
		h30.677c-0.438-8.217-6.902-13.257-15.229-13.257C415.345,75.783,409.1,81.042,407.895,89.04z"/>
</g>
<g>
	<path fill="#213857" d="M553.628,39.584c3.396-3.505,8.654-3.505,12.05,0c3.396,3.396,3.396,8.654,0,12.05
		c-3.396,3.396-8.653,3.396-12.05,0C550.232,48.238,550.232,42.98,553.628,39.584z M566.226,123.056H553.19V64.56h13.035V123.056z"
		/>
	<path fill="#213857" d="M578.387,109.363l10.187-5.696c3.177,6.243,7.778,9.42,14.021,9.42c4.93,0,9.202-2.52,9.202-6.463
		c0-3.396-4.053-6.024-12.05-7.668c-6.463-1.314-11.393-3.614-14.569-7.011c-2.738-2.957-4.162-6.463-4.162-10.625
		c0-5.258,2.081-9.53,6.354-12.926c4.271-3.396,9.201-5.039,14.897-5.039c10.516,0,17.855,4.381,21.908,13.145l-10.077,5.696
		c-2.63-5.258-6.683-7.887-12.27-7.887c-4.053,0-8.216,2.52-8.216,5.696c0,3.834,3.287,5.806,10.845,7.449
		c13.255,2.958,20.266,9.312,20.266,18.403c0,5.367-2.081,9.749-6.134,13.146c-4.054,3.396-9.421,5.039-15.994,5.039
		C590.983,124.042,582.878,119.112,578.387,109.363z"/>
	<path fill="#213857" d="M678.073,123.056V90.303c0-8.764-4.272-14.569-12.927-14.569c-8.216,0-13.474,5.915-13.474,14.788v32.534
		h-13.035V33.888h13.035v38.121c4.491-5.806,10.407-8.654,17.527-8.654c14.35,0,21.908,9.64,21.908,23.661v36.04H678.073z"/>
	<path fill="#213857" d="M729.889,74.638c-6.682,0-11.611,3.067-14.569,9.311l-9.968-5.696c4.601-9.968,12.926-14.897,24.866-14.897
		c10.954,0,18.293,3.943,21.908,11.94c1.314,2.958,1.972,6.463,1.972,10.517v37.244h-12.816v-7.997
		c-3.615,6.025-9.312,8.983-17.198,8.983c-5.696,0-10.406-1.644-14.131-4.82s-5.587-7.34-5.587-12.378v-0.657
		c0-13.584,14.021-17.855,24.318-17.855h7.23c3.614,0,5.477-1.644,5.477-4.93C741.391,78.581,737.229,74.638,729.889,74.638z
		 M741.281,97.532h-12.598c-2.738,0-5.367,0.767-7.777,2.19c-2.301,1.425-3.505,3.396-3.505,5.916c0,4.819,3.724,7.996,9.311,7.996
		c8.873,0,14.569-5.477,14.569-14.24V97.532z"/>
</g>
<g>
	<path fill="#213857" stroke="#213857" stroke-width="2" stroke-miterlimit="10" d="M102.254,68.769l10.487-6.96
		c-3.708-5.598-8.483-9.998-14.335-13.208c-5.815-3.14-12.069-4.711-18.773-4.711c-0.917,0-1.817,0.027-2.706,0.082
		c0.187,1.818-0.179,5.957-0.646,7.116c-0.562,1.406-2.239,3.333-3.063,4.561c-0.815,1.228-3.679,1.995-5.148,3.445
		c3.501-1.712,7.359-2.575,11.563-2.575C89.296,56.519,96.833,60.604,102.254,68.769z M79.633,112.307
		c-7.49,0-13.876-2.724-19.148-8.185c-5.355-5.457-8.025-12.03-8.025-19.737c0-7.669,2.67-14.23,8.025-19.68
		c1.911-1.977,3.961-3.594,6.162-4.852c-1.808,0.536-4.327,0.328-5.3,0.601c-1.293,0.347-4.458-0.244-6.499-0.591
		c-2.05-0.347-2.809-0.469-4.158-0.816c-1.207-0.315-1.507-0.608-1.564-0.673c-0.336,0.403-0.664,0.807-0.982,1.219
		C42.6,66.7,39.83,74.965,39.83,84.385c0,11.16,3.884,20.721,11.665,28.67c7.81,7.921,17.182,11.873,28.138,11.873
		c6.666,0,12.92-1.583,18.773-4.756c5.852-3.173,10.627-7.556,14.335-13.155l-10.487-7.015
		C96.833,108.208,89.296,112.307,79.633,112.307z"/>
</g>
<path fill="#14122D" stroke="#14122D" stroke-width="2" stroke-linecap="round" stroke-linejoin="bevel" stroke-miterlimit="10" d="
	M68.05,59.104c-0.355,0.355-0.843,0.59-1.403,0.749C67.104,59.593,67.573,59.338,68.05,59.104z"/>
<path fill-rule="evenodd" clip-rule="evenodd" fill="#213857" d="M522.834,70.336c0-9.635,0-18.902,0-28.381
	c0.764-0.102,1.373-0.255,1.982-0.255c3.969-0.021,7.938,0.03,11.905-0.032c1.431-0.022,2.024,0.359,2.02,1.938
	c-0.058,15.297,0.134,30.595-0.083,45.892c-0.25,17.609-13.949,32.859-31.299,35.277c-19.854,2.768-37.952-10.296-41.48-30.231
	c-3.13-17.703,7.383-32.931,22.957-36.734c12.794-3.121,23.584,0.596,32.194,10.575c0.377,0.434,0.716,0.903,1.083,1.35
	C522.203,69.843,522.332,69.919,522.834,70.336z M491.605,88.743c0.123,0.603,0.248,1.151,0.354,1.704
	c0.951,4.946,5.211,8.314,10.411,8.221c4.957-0.087,9.055-3.735,9.766-8.692c1.083-7.547-4.031-15.008-11.627-16.954
	c-7.669-1.966-15.946,2.256-18.438,9.789c-2.479,7.502-0.604,14.328,4.717,19.975c5.639,5.984,12.712,8.034,20.716,5.887
	c11.128-2.986,17.189-13.49,15.001-25.643c-2.337-12.979-14.255-22.195-27.671-21.405c-12.914,0.76-23.896,11.872-24.486,24.832
	c-0.963,21.133,17.186,35.763,35.434,33.457c15.616-1.976,27.854-15.302,27.927-31.061c0.061-13.278-0.054-26.554,0.076-39.832
	c0.025-2.572-1.257-2.496-3.053-2.518c-1.804-0.021-2.898,0.082-2.875,2.482c0.123,13.057,0.063,26.12,0.051,39.181
	c-0.001,1.299,0.006,2.606-0.18,3.884c-2.152,14.887-16.087,24.32-30.206,22.022c-14.311-2.328-24.669-17.934-20.637-31.839
	c2.919-10.065,12.801-16.399,22.994-14.743c10.535,1.713,17.825,10.868,17.296,21.719c-0.342,6.951-4.822,12.369-11.638,14.065
	c-6.45,1.61-13.311-1.272-16.679-7.128c-1.286-2.228-2.294-4.605-1.759-7.403C488.641,88.743,490.062,88.743,491.605,88.743z"/>
<path fill-rule="evenodd" clip-rule="evenodd" fill="#213857" d="M539.012,38.629c-2.79-4.83-5.577-9.661-8.581-14.867
	c-2.945,5.084-5.731,9.887-8.66,14.938c0.389-0.128,0.555-0.132,0.64-0.215c2.246-2.213,4.406-2.018,6.676,0.048
	c0.418,0.38,1.672,0.501,2.035,0.178c2.629-2.339,5.126-2.559,7.668,0.368C538.861,38.929,538.939,38.781,539.012,38.629z"/>
<g>
	<path fill="#213857" d="M392.091,160.509v-22.6h7.671c1.804,0,3.379,0.298,4.727,0.892c1.348,0.595,2.472,1.4,3.374,2.419
		c0.901,1.019,1.581,2.212,2.037,3.581s0.685,2.828,0.685,4.377c0,1.719-0.255,3.273-0.764,4.663
		c-0.51,1.39-1.236,2.578-2.181,3.564c-0.944,0.987-2.08,1.751-3.406,2.292s-2.816,0.812-4.472,0.812H392.091z M408.355,149.178
		c0-1.358-0.19-2.604-0.572-3.74c-0.383-1.135-0.939-2.117-1.672-2.944c-0.731-0.828-1.628-1.469-2.689-1.926
		c-1.062-0.456-2.281-0.685-3.66-0.685h-5.443v18.652h5.443c1.4,0,2.637-0.238,3.708-0.716s1.968-1.135,2.689-1.974
		c0.722-0.838,1.268-1.825,1.64-2.96C408.17,151.751,408.355,150.515,408.355,149.178z"/>
	<path fill="#213857" d="M414.403,140.456v-3.183h2.164v3.183H414.403z M414.403,160.509v-16.583h2.164v16.583H414.403z"/>
	<path fill="#213857" d="M429.617,145.835c-1.464,0.043-2.737,0.446-3.819,1.21c-1.083,0.764-1.847,1.814-2.292,3.151v10.313h-2.164
		v-16.583h2.037v3.979c0.615-1.273,1.442-2.271,2.482-2.992c1.039-0.721,2.153-1.082,3.342-1.082c0.17,0,0.308,0.011,0.414,0.031
		V145.835z"/>
	<path fill="#213857" d="M438.849,160.827c-1.209,0-2.318-0.229-3.326-0.685s-1.884-1.082-2.626-1.878
		c-0.743-0.796-1.321-1.713-1.734-2.753c-0.414-1.04-0.621-2.153-0.621-3.343c0-1.166,0.207-2.265,0.621-3.294
		c0.413-1.029,0.986-1.931,1.719-2.705c0.731-0.774,1.607-1.39,2.626-1.847c1.019-0.456,2.121-0.685,3.311-0.685
		c1.209,0,2.317,0.229,3.326,0.685c1.007,0.457,1.872,1.077,2.594,1.862c0.721,0.785,1.283,1.687,1.687,2.705
		s0.605,2.101,0.605,3.247c0,0.17,0,0.34,0,0.509c0,0.171-0.011,0.287-0.032,0.351h-14.196c0.064,0.891,0.271,1.714,0.621,2.467
		c0.35,0.753,0.801,1.406,1.353,1.957c0.552,0.553,1.183,0.982,1.894,1.289c0.711,0.309,1.47,0.462,2.276,0.462
		c0.53,0,1.061-0.074,1.592-0.223c0.529-0.148,1.019-0.351,1.464-0.604c0.445-0.255,0.849-0.567,1.209-0.939
		c0.361-0.371,0.637-0.779,0.828-1.226l1.878,0.51c-0.255,0.615-0.616,1.173-1.082,1.671c-0.467,0.499-1.009,0.934-1.624,1.305
		c-0.615,0.372-1.294,0.658-2.037,0.859C440.43,160.727,439.655,160.827,438.849,160.827z M444.96,151.342
		c-0.063-0.892-0.271-1.703-0.62-2.435c-0.351-0.732-0.796-1.363-1.337-1.895c-0.541-0.53-1.168-0.943-1.878-1.241
		c-0.712-0.297-1.47-0.445-2.276-0.445s-1.57,0.148-2.292,0.445c-0.722,0.298-1.353,0.711-1.894,1.241
		c-0.541,0.531-0.977,1.168-1.305,1.91c-0.329,0.743-0.525,1.549-0.589,2.419H444.96z"/>
	<path fill="#213857" d="M449.225,152.169c0-1.166,0.201-2.27,0.604-3.31s0.972-1.947,1.703-2.722
		c0.732-0.774,1.607-1.385,2.626-1.83c1.019-0.446,2.144-0.669,3.374-0.669c1.57,0,2.938,0.355,4.106,1.066
		c1.166,0.711,2.047,1.671,2.642,2.881l-2.101,0.668c-0.467-0.848-1.12-1.512-1.958-1.989s-1.767-0.716-2.785-0.716
		c-0.849,0-1.639,0.17-2.371,0.509c-0.732,0.34-1.368,0.802-1.91,1.385c-0.541,0.584-0.966,1.279-1.272,2.085
		c-0.309,0.807-0.462,1.688-0.462,2.642c0,0.935,0.159,1.814,0.478,2.643c0.318,0.827,0.753,1.544,1.305,2.148
		s1.194,1.082,1.926,1.433c0.732,0.35,1.513,0.524,2.34,0.524c0.53,0,1.056-0.074,1.575-0.223c0.521-0.148,1.003-0.354,1.448-0.62
		c0.446-0.266,0.828-0.568,1.146-0.907c0.318-0.34,0.541-0.7,0.668-1.083l2.133,0.637c-0.233,0.595-0.573,1.142-1.019,1.64
		c-0.445,0.499-0.971,0.934-1.575,1.305c-0.605,0.372-1.273,0.658-2.006,0.859c-0.731,0.202-1.491,0.303-2.275,0.303
		c-1.21,0-2.324-0.229-3.343-0.685s-1.899-1.082-2.642-1.878c-0.743-0.796-1.321-1.713-1.734-2.753
		C449.432,154.472,449.225,153.358,449.225,152.169z"/>
	<path fill="#213857" d="M475.803,159.713c-0.127,0.063-0.313,0.148-0.557,0.255c-0.244,0.106-0.525,0.212-0.844,0.318
		s-0.68,0.202-1.082,0.286c-0.403,0.085-0.828,0.128-1.273,0.128c-0.467,0-0.913-0.064-1.337-0.191
		c-0.425-0.127-0.796-0.323-1.114-0.589c-0.318-0.265-0.572-0.6-0.764-1.003c-0.191-0.402-0.286-0.869-0.286-1.4v-11.872h-2.292
		v-1.719h2.292v-5.603h2.164v5.603h3.819v1.719h-3.819v11.268c0.042,0.615,0.26,1.066,0.652,1.353s0.844,0.43,1.353,0.43
		c0.615,0,1.156-0.101,1.624-0.302c0.466-0.202,0.764-0.345,0.891-0.431L475.803,159.713z"/>
	<path fill="#213857" d="M478.509,140.456v-3.183h2.164v3.183H478.509z M478.509,160.509v-16.583h2.164v16.583H478.509z"/>
	<path fill="#213857" d="M492.513,160.827c-1.209,0-2.313-0.229-3.31-0.685c-0.998-0.456-1.862-1.076-2.595-1.862
		c-0.731-0.784-1.3-1.697-1.703-2.737c-0.403-1.039-0.604-2.132-0.604-3.278c0-1.167,0.207-2.271,0.621-3.311
		c0.413-1.039,0.986-1.951,1.719-2.737c0.731-0.784,1.597-1.41,2.594-1.878c0.997-0.466,2.09-0.7,3.278-0.7s2.286,0.234,3.295,0.7
		c1.008,0.468,1.878,1.094,2.609,1.878c0.732,0.786,1.306,1.698,1.72,2.737c0.413,1.04,0.62,2.144,0.62,3.311
		c0,1.146-0.202,2.239-0.604,3.278c-0.403,1.04-0.971,1.953-1.703,2.737c-0.732,0.786-1.603,1.406-2.61,1.862
		S493.723,160.827,492.513,160.827z M486.497,152.297c0,0.934,0.159,1.798,0.478,2.594s0.748,1.496,1.289,2.101
		c0.541,0.605,1.178,1.077,1.91,1.417c0.731,0.34,1.512,0.509,2.339,0.509c0.828,0,1.607-0.175,2.34-0.524
		c0.732-0.351,1.374-0.828,1.926-1.433s0.986-1.311,1.305-2.117c0.318-0.806,0.478-1.676,0.478-2.609
		c0-0.912-0.159-1.777-0.478-2.595c-0.318-0.816-0.753-1.527-1.305-2.133c-0.552-0.604-1.193-1.082-1.926-1.432
		c-0.732-0.351-1.512-0.525-2.34-0.525c-0.827,0-1.603,0.175-2.323,0.525c-0.722,0.35-1.358,0.833-1.91,1.448
		s-0.986,1.332-1.305,2.148C486.656,150.488,486.497,151.363,486.497,152.297z"/>
	<path fill="#213857" d="M518.326,160.509h-2.165v-9.263c0-1.974-0.292-3.405-0.875-4.297c-0.584-0.892-1.48-1.337-2.689-1.337
		c-0.637,0-1.273,0.117-1.91,0.351s-1.226,0.563-1.767,0.986c-0.541,0.425-1.023,0.929-1.448,1.512
		c-0.425,0.584-0.732,1.215-0.923,1.895v10.153h-2.164v-16.583h1.973v3.756c0.68-1.21,1.65-2.186,2.913-2.929
		c1.262-0.742,2.636-1.114,4.122-1.114c0.912,0,1.687,0.17,2.323,0.51s1.146,0.817,1.527,1.433c0.383,0.615,0.658,1.368,0.828,2.26
		c0.17,0.891,0.255,1.878,0.255,2.96V160.509z"/>
	<path fill="#213857" d="M531.503,160.509v-22.6h14.833v1.974H533.73v8.308h10.632v1.847H533.73v10.472H531.503z"/>
	<path fill="#213857" d="M555.789,160.827c-1.209,0-2.313-0.229-3.31-0.685c-0.998-0.456-1.862-1.076-2.595-1.862
		c-0.731-0.784-1.3-1.697-1.703-2.737c-0.403-1.039-0.604-2.132-0.604-3.278c0-1.167,0.207-2.271,0.621-3.311
		c0.413-1.039,0.986-1.951,1.719-2.737c0.731-0.784,1.597-1.41,2.594-1.878c0.997-0.466,2.09-0.7,3.278-0.7s2.286,0.234,3.295,0.7
		c1.008,0.468,1.878,1.094,2.609,1.878c0.732,0.786,1.306,1.698,1.72,2.737c0.413,1.04,0.62,2.144,0.62,3.311
		c0,1.146-0.202,2.239-0.604,3.278c-0.403,1.04-0.971,1.953-1.703,2.737c-0.732,0.786-1.603,1.406-2.61,1.862
		S556.999,160.827,555.789,160.827z M549.773,152.297c0,0.934,0.159,1.798,0.478,2.594s0.748,1.496,1.289,2.101
		c0.541,0.605,1.178,1.077,1.91,1.417c0.731,0.34,1.512,0.509,2.339,0.509c0.828,0,1.607-0.175,2.34-0.524
		c0.732-0.351,1.374-0.828,1.926-1.433s0.986-1.311,1.305-2.117c0.318-0.806,0.478-1.676,0.478-2.609
		c0-0.912-0.159-1.777-0.478-2.595c-0.318-0.816-0.753-1.527-1.305-2.133c-0.552-0.604-1.193-1.082-1.926-1.432
		c-0.732-0.351-1.512-0.525-2.34-0.525c-0.827,0-1.603,0.175-2.323,0.525c-0.722,0.35-1.358,0.833-1.91,1.448
		s-0.986,1.332-1.305,2.148C549.933,150.488,549.773,151.363,549.773,152.297z"/>
	<path fill="#213857" d="M575.937,145.835c-1.464,0.043-2.737,0.446-3.819,1.21c-1.083,0.764-1.847,1.814-2.292,3.151v10.313h-2.164
		v-16.583h2.037v3.979c0.615-1.273,1.442-2.271,2.482-2.992c1.039-0.721,2.153-1.082,3.342-1.082c0.17,0,0.308,0.011,0.414,0.031
		V145.835z"/>
	<path fill="#213857" d="M585.677,137.909l7.385,12.159l7.448-12.159h2.419l-8.753,14.196v8.403h-2.229v-8.467l-8.721-14.133
		H585.677z"/>
	<path fill="#213857" d="M609.931,160.827c-1.209,0-2.313-0.229-3.31-0.685c-0.998-0.456-1.862-1.076-2.595-1.862
		c-0.731-0.784-1.3-1.697-1.703-2.737c-0.403-1.039-0.604-2.132-0.604-3.278c0-1.167,0.207-2.271,0.621-3.311
		c0.413-1.039,0.986-1.951,1.719-2.737c0.731-0.784,1.597-1.41,2.594-1.878c0.997-0.466,2.09-0.7,3.278-0.7s2.286,0.234,3.295,0.7
		c1.008,0.468,1.878,1.094,2.609,1.878c0.732,0.786,1.306,1.698,1.72,2.737c0.413,1.04,0.62,2.144,0.62,3.311
		c0,1.146-0.202,2.239-0.604,3.278c-0.403,1.04-0.971,1.953-1.703,2.737c-0.732,0.786-1.603,1.406-2.61,1.862
		S611.141,160.827,609.931,160.827z M603.915,152.297c0,0.934,0.159,1.798,0.478,2.594s0.748,1.496,1.289,2.101
		c0.541,0.605,1.178,1.077,1.91,1.417c0.731,0.34,1.512,0.509,2.339,0.509c0.828,0,1.607-0.175,2.34-0.524
		c0.732-0.351,1.374-0.828,1.926-1.433s0.986-1.311,1.305-2.117c0.318-0.806,0.478-1.676,0.478-2.609
		c0-0.912-0.159-1.777-0.478-2.595c-0.318-0.816-0.753-1.527-1.305-2.133c-0.552-0.604-1.193-1.082-1.926-1.432
		c-0.732-0.351-1.512-0.525-2.34-0.525c-0.827,0-1.603,0.175-2.323,0.525c-0.722,0.35-1.358,0.833-1.91,1.448
		s-0.986,1.332-1.305,2.148C604.074,150.488,603.915,151.363,603.915,152.297z"/>
	<path fill="#213857" d="M626.991,160.827c-1.804,0-3.146-0.6-4.026-1.799c-0.881-1.198-1.32-2.986-1.32-5.363v-9.739h2.164v9.357
		c0,3.756,1.283,5.634,3.852,5.634c0.637,0,1.262-0.105,1.878-0.318c0.615-0.212,1.183-0.52,1.703-0.923
		c0.52-0.402,0.986-0.88,1.4-1.433c0.413-0.551,0.748-1.178,1.002-1.878v-10.439h2.165v13.782c0,0.594,0.255,0.891,0.764,0.891v1.91
		c-0.255,0.042-0.462,0.063-0.621,0.063s-0.271,0-0.334,0c-0.509-0.021-0.923-0.201-1.241-0.541
		c-0.318-0.339-0.478-0.796-0.478-1.368v-1.91c-0.722,1.295-1.703,2.297-2.944,3.008S628.392,160.827,626.991,160.827z"/>
	<path fill="#213857" d="M648.986,145.835c-1.464,0.043-2.737,0.446-3.819,1.21c-1.083,0.764-1.847,1.814-2.292,3.151v10.313h-2.164
		v-16.583h2.037v3.979c0.615-1.273,1.442-2.271,2.482-2.992c1.039-0.721,2.153-1.082,3.342-1.082c0.17,0,0.308,0.011,0.414,0.031
		V145.835z"/>
	<path fill="#213857" d="M658.185,149.05c0-1.357,0.238-2.71,0.716-4.058s1.173-2.552,2.085-3.613
		c0.912-1.061,2.037-1.926,3.374-2.594c1.337-0.669,2.854-1.003,4.552-1.003c2.016,0,3.74,0.457,5.173,1.369
		c1.432,0.912,2.487,2.101,3.167,3.564l-1.751,1.082c-0.361-0.742-0.801-1.368-1.321-1.878c-0.52-0.509-1.077-0.923-1.671-1.241
		s-1.209-0.546-1.846-0.685c-0.637-0.138-1.263-0.207-1.878-0.207c-1.358,0-2.558,0.276-3.597,0.828
		c-1.04,0.552-1.916,1.273-2.626,2.164c-0.712,0.892-1.247,1.895-1.607,3.008c-0.361,1.114-0.541,2.244-0.541,3.391
		c0,1.252,0.217,2.45,0.652,3.597c0.435,1.146,1.028,2.159,1.782,3.039c0.753,0.881,1.645,1.581,2.674,2.102
		c1.028,0.52,2.148,0.779,3.357,0.779c0.637,0,1.289-0.079,1.958-0.238c0.668-0.159,1.315-0.414,1.941-0.765
		c0.626-0.35,1.204-0.784,1.735-1.305c0.529-0.52,0.976-1.15,1.336-1.894l1.847,0.955c-0.361,0.849-0.87,1.597-1.528,2.243
		c-0.657,0.648-1.39,1.194-2.196,1.64s-1.66,0.785-2.562,1.019c-0.902,0.233-1.788,0.351-2.658,0.351
		c-1.549,0-2.971-0.34-4.265-1.019c-1.295-0.68-2.409-1.565-3.343-2.658s-1.66-2.334-2.181-3.724
		C658.444,151.91,658.185,150.493,658.185,149.05z"/>
	<path fill="#213857" d="M685.239,160.827c-0.785,0-1.512-0.133-2.18-0.397c-0.669-0.266-1.253-0.632-1.751-1.099
		c-0.499-0.467-0.887-1.013-1.162-1.64c-0.275-0.625-0.413-1.299-0.413-2.021s0.169-1.39,0.509-2.006
		c0.339-0.615,0.816-1.146,1.433-1.591c0.615-0.446,1.347-0.791,2.196-1.035c0.849-0.243,1.782-0.365,2.801-0.365
		c0.849,0,1.708,0.074,2.578,0.223s1.645,0.36,2.323,0.637v-1.496c0-1.465-0.413-2.626-1.241-3.485
		c-0.827-0.859-1.973-1.289-3.438-1.289c-0.849,0-1.719,0.17-2.609,0.509c-0.892,0.34-1.794,0.828-2.706,1.464l-0.764-1.432
		c2.143-1.443,4.223-2.165,6.238-2.165c2.079,0,3.713,0.584,4.902,1.751c1.188,1.167,1.782,2.78,1.782,4.838v7.48
		c0,0.594,0.265,0.891,0.796,0.891v1.91c-0.361,0.063-0.637,0.096-0.828,0.096c-0.552,0-0.981-0.138-1.289-0.414
		c-0.308-0.275-0.473-0.657-0.493-1.146l-0.063-1.306c-0.764,0.998-1.725,1.762-2.881,2.292S686.576,160.827,685.239,160.827z
		 M685.749,159.172c1.124,0,2.159-0.212,3.104-0.637c0.943-0.424,1.66-0.986,2.148-1.687c0.19-0.191,0.334-0.398,0.43-0.621
		s0.143-0.43,0.143-0.62v-2.706c-0.721-0.275-1.469-0.488-2.243-0.637c-0.775-0.148-1.565-0.223-2.372-0.223
		c-1.527,0-2.769,0.318-3.724,0.955s-1.433,1.475-1.433,2.515c0,0.509,0.101,0.986,0.303,1.432c0.201,0.446,0.478,0.834,0.827,1.162
		c0.351,0.329,0.77,0.589,1.258,0.78C684.677,159.076,685.197,159.172,685.749,159.172z"/>
	<path fill="#213857" d="M706.693,145.835c-1.464,0.043-2.737,0.446-3.819,1.21c-1.083,0.764-1.847,1.814-2.292,3.151v10.313h-2.164
		v-16.583h2.037v3.979c0.615-1.273,1.442-2.271,2.482-2.992c1.039-0.721,2.153-1.082,3.342-1.082c0.17,0,0.308,0.011,0.414,0.031
		V145.835z"/>
	<path fill="#213857" d="M715.924,160.827c-1.209,0-2.318-0.229-3.326-0.685s-1.884-1.082-2.626-1.878
		c-0.743-0.796-1.321-1.713-1.734-2.753c-0.414-1.04-0.621-2.153-0.621-3.343c0-1.166,0.207-2.265,0.621-3.294
		c0.413-1.029,0.986-1.931,1.719-2.705c0.731-0.774,1.607-1.39,2.626-1.847c1.019-0.456,2.121-0.685,3.311-0.685
		c1.209,0,2.317,0.229,3.326,0.685c1.007,0.457,1.872,1.077,2.594,1.862c0.721,0.785,1.283,1.687,1.687,2.705
		s0.605,2.101,0.605,3.247c0,0.17,0,0.34,0,0.509c0,0.171-0.011,0.287-0.032,0.351h-14.196c0.064,0.891,0.271,1.714,0.621,2.467
		c0.35,0.753,0.801,1.406,1.353,1.957c0.552,0.553,1.183,0.982,1.894,1.289c0.711,0.309,1.47,0.462,2.276,0.462
		c0.53,0,1.061-0.074,1.592-0.223c0.529-0.148,1.019-0.351,1.464-0.604c0.445-0.255,0.849-0.567,1.209-0.939
		c0.361-0.371,0.637-0.779,0.828-1.226l1.878,0.51c-0.255,0.615-0.616,1.173-1.082,1.671c-0.467,0.499-1.009,0.934-1.624,1.305
		c-0.615,0.372-1.294,0.658-2.037,0.859C717.505,160.727,716.73,160.827,715.924,160.827z M722.035,151.342
		c-0.063-0.892-0.271-1.703-0.62-2.435c-0.351-0.732-0.796-1.363-1.337-1.895c-0.541-0.53-1.168-0.943-1.878-1.241
		c-0.712-0.297-1.47-0.445-2.276-0.445s-1.57,0.148-2.292,0.445c-0.722,0.298-1.353,0.711-1.894,1.241
		c-0.541,0.531-0.977,1.168-1.305,1.91c-0.329,0.743-0.525,1.549-0.589,2.419H722.035z"/>
	<path fill="#213857" d="M734.607,160.827c-1.209,0-2.318-0.229-3.326-0.685s-1.884-1.082-2.626-1.878
		c-0.743-0.796-1.321-1.713-1.734-2.753c-0.414-1.04-0.621-2.153-0.621-3.343c0-1.166,0.207-2.265,0.621-3.294
		c0.413-1.029,0.986-1.931,1.719-2.705c0.731-0.774,1.607-1.39,2.626-1.847c1.019-0.456,2.121-0.685,3.311-0.685
		c1.209,0,2.317,0.229,3.326,0.685c1.007,0.457,1.872,1.077,2.594,1.862c0.721,0.785,1.283,1.687,1.687,2.705
		s0.605,2.101,0.605,3.247c0,0.17,0,0.34,0,0.509c0,0.171-0.011,0.287-0.032,0.351H728.56c0.064,0.891,0.271,1.714,0.621,2.467
		c0.35,0.753,0.801,1.406,1.353,1.957c0.552,0.553,1.183,0.982,1.894,1.289c0.711,0.309,1.47,0.462,2.276,0.462
		c0.53,0,1.061-0.074,1.592-0.223c0.529-0.148,1.019-0.351,1.464-0.604c0.445-0.255,0.849-0.567,1.209-0.939
		c0.361-0.371,0.637-0.779,0.828-1.226l1.878,0.51c-0.255,0.615-0.616,1.173-1.082,1.671c-0.467,0.499-1.009,0.934-1.624,1.305
		c-0.615,0.372-1.294,0.658-2.037,0.859C736.188,160.727,735.414,160.827,734.607,160.827z M740.719,151.342
		c-0.063-0.892-0.271-1.703-0.62-2.435c-0.351-0.732-0.796-1.363-1.337-1.895c-0.541-0.53-1.168-0.943-1.878-1.241
		c-0.712-0.297-1.47-0.445-2.276-0.445s-1.57,0.148-2.292,0.445c-0.722,0.298-1.353,0.711-1.894,1.241
		c-0.541,0.531-0.977,1.168-1.305,1.91c-0.329,0.743-0.525,1.549-0.589,2.419H740.719z"/>
	<path fill="#213857" d="M754.405,145.835c-1.464,0.043-2.737,0.446-3.819,1.21c-1.083,0.764-1.847,1.814-2.292,3.151v10.313h-2.164
		v-16.583h2.037v3.979c0.615-1.273,1.442-2.271,2.482-2.992c1.039-0.721,2.153-1.082,3.342-1.082c0.17,0,0.308,0.011,0.414,0.031
		V145.835z"/>
</g>
<path fill-rule="evenodd" clip-rule="evenodd" fill="#213857" d="M31.359,74.945c-1.709,1.623-3.531,2.133-5.605,1.51
	c-2.054-0.612-3.286-2.035-3.744-4.125c-0.045-0.203-0.091-0.453-0.017-0.629c0.449-1.072-0.166-1.93-0.498-2.858
	c-0.489-1.375-0.898-2.781-1.389-4.155c-0.112-0.315-0.365-0.645-0.646-0.824c-1.305-0.828-1.582-2.569-0.575-3.748
	c0.178-0.208,0.363-0.528,0.342-0.781c-0.328-4.192,1.06-7.774,3.735-10.949c5.356-6.349,10.684-12.721,16.025-19.082
	c2.081-2.477,4.249-4.884,6.218-7.447c1.403-1.827,3.055-2.304,5.257-1.978c4.176,0.612,8.378,1.045,12.571,1.549
	c4.989,0.598,9.977,1.198,14.966,1.795c2.482,0.298,4.967,0.59,7.449,0.883c0.164,0.021,0.331,0.028,0.492,0.064
	c1.547,0.32,2.074,1.663,1.135,2.932c-0.351,0.474-0.751,0.911-1.133,1.36c-6.045,7.191-12.089,14.377-18.136,21.567
	c-1.444,1.713-2.918,3.405-4.327,5.149c-0.966,1.198-2.165,1.681-3.669,1.502c-2.46-0.298-4.919-0.588-7.379-0.883
	c-4.193-0.502-8.387-1.006-12.579-1.507c-4.614-0.556-9.229-1.112-13.842-1.661c-0.679-0.083-1.38-0.074-2.034-0.248
	c-0.767-0.206-1.085,0.125-1.398,0.742c-0.953,1.875-1.162,3.865-1.02,5.919c0.014,0.19,0.178,0.423,0.343,0.543
	c1.44,1.035,1.661,2.441,0.608,3.843c-0.116,0.158-0.182,0.439-0.125,0.618c0.543,1.654,1.104,3.301,1.702,4.938
	c0.073,0.197,0.382,0.413,0.603,0.438c0.937,0.117,1.616,0.592,1.944,1.443C27.459,73.008,28.76,74.582,31.359,74.945z
	 M54.178,40.296c1.074-0.078,1.992-0.477,2.593-1.439c0.65-1.037,0.239-2.188-0.926-2.544c-1.149-0.352-2.155-0.011-3.001,0.775
	c-0.604,0.558-0.931,1.273-0.593,2.109C52.59,40.031,53.338,40.236,54.178,40.296z"/>
<path fill-rule="evenodd" clip-rule="evenodd" fill="#213856" stroke="#FFFFFF" stroke-miterlimit="10" d="M87.015,44.643
	c-0.134,2.43-1.19,4.437-2.521,6.334c-1.962,2.796-4.428,5.144-6.816,7.559c-2.371,2.401-4.781,4.77-6.67,7.594
	c-0.431,0.645-0.806,1.336-1.287,1.945c-1.613,2.039-3.979,2.841-6.449,2.041c-3.366-1.091-6.829-1.362-10.322-1.523
	c-3.417-0.159-6.835-0.316-10.243-0.585c-1.837-0.142-3.624-0.632-5.276-1.498c-1.605-0.843-2.818-2.066-3.468-3.768
	c-0.808-2.114-1.574-4.243-2.334-6.374c-0.443-1.242,0.258-2.014,1.573-1.851c3.746,0.469,7.493,0.901,11.242,1.352
	c4.919,0.586,9.843,1.127,14.753,1.771c2.168,0.288,3.819-0.308,5.236-2.015c5.259-6.337,10.588-12.613,15.892-18.914
	c0.411-0.484,0.801-0.995,1.235-1.459c0.675-0.72,1.718-0.592,2.099,0.285c0.967,2.228,1.925,4.456,2.813,6.716
	C86.769,43.007,86.841,43.848,87.015,44.643z"/>
<g>
</g>
<g>
</g>
<g>
</g>
<g>
</g>
<g>
</g>
<g>
</g>
<g>
</g>
</svg>
